<svg width="671" height="598" viewBox="0 0 671 598" fill="none" xmlns="http://www.w3.org/2000/svg">
<rect width="671" height="598" fill="white"/>
<circle cx="334.732" cy="298.732" r="118.035" transform="rotate(49.0983 334.732 298.732)" stroke="url(#paint0_linear)" stroke-width="6"/>
<circle cx="333.989" cy="299.475" r="105.412" transform="rotate(35.8159 333.989 299.475)" stroke="url(#paint1_linear)" stroke-width="6"/>
<path d="M291.031 327.343L283.544 319.856C282.562 318.868 282.011 317.532 282.011 316.139C282.011 314.746 282.562 313.409 283.544 312.421L346.078 249.783C345.581 248.068 345.315 246.295 345.287 244.51C345.289 241.153 346.093 237.845 347.631 234.861C349.169 231.877 351.398 229.304 354.131 227.354C356.864 225.405 360.023 224.136 363.345 223.654C366.667 223.171 370.057 223.488 373.232 224.579L359.839 237.972L362.634 240.766L370.121 248.254L372.915 251.048L386.308 237.656C387.399 240.83 387.716 244.22 387.234 247.542C386.751 250.864 385.482 254.023 383.533 256.756C381.584 259.49 379.01 261.718 376.026 263.256C373.042 264.794 369.734 265.598 366.377 265.601C364.592 265.572 362.819 265.306 361.105 264.81L298.466 327.343C297.478 328.325 296.142 328.876 294.749 328.876C293.356 328.876 292.019 328.325 291.031 327.343Z" fill="#1F1F9C"/>
<path d="M385.919 318.671L378.432 326.158C377.444 327.14 376.108 327.692 374.715 327.692C373.322 327.692 371.986 327.14 370.998 326.158L308.359 263.625C306.644 264.122 304.871 264.388 303.086 264.416C299.729 264.414 296.421 263.61 293.437 262.072C290.454 260.533 287.88 258.305 285.931 255.572C283.981 252.839 282.713 249.68 282.23 246.357C281.747 243.035 282.065 239.646 283.156 236.471L296.548 249.864L299.343 247.069L306.83 239.582L309.624 236.787L296.232 223.395C299.407 222.304 302.796 221.986 306.118 222.469C309.441 222.952 312.6 224.22 315.333 226.17C318.066 228.119 320.294 230.693 321.833 233.676C323.371 236.66 324.175 239.968 324.177 243.325C324.149 245.11 323.883 246.883 323.386 248.598L385.919 311.237C386.901 312.225 387.453 313.561 387.453 314.954C387.453 316.347 386.901 317.683 385.919 318.671Z" fill="#1F79BE"/>
<path d="M299.196 345.379H294.075V359.266H289.962V345.379H284.935V342.203H299.196V345.379ZM314.325 342.203V353.371C314.325 354.637 314.056 355.734 313.517 356.664C312.978 357.586 312.204 358.289 311.196 358.773C310.188 359.258 308.997 359.5 307.622 359.5C305.544 359.5 303.907 358.961 302.712 357.883C301.517 356.805 300.907 355.328 300.884 353.453V342.203H305.021V353.535C305.067 355.402 305.935 356.336 307.622 356.336C308.474 356.336 309.118 356.102 309.556 355.633C309.993 355.164 310.212 354.402 310.212 353.348V342.203H314.325ZM331.153 359.266H327.063L321.017 348.648V359.266H316.903V342.203H321.017L327.052 352.82V342.203H331.153V359.266ZM344.337 352.035H337.868V356.102H345.509V359.266H333.755V342.203H345.532V345.379H337.868V348.977H344.337V352.035ZM366.544 342.203V353.371C366.544 354.637 366.274 355.734 365.735 356.664C365.196 357.586 364.423 358.289 363.415 358.773C362.407 359.258 361.216 359.5 359.841 359.5C357.763 359.5 356.126 358.961 354.931 357.883C353.735 356.805 353.126 355.328 353.103 353.453V342.203H357.239V353.535C357.286 355.402 358.153 356.336 359.841 356.336C360.692 356.336 361.337 356.102 361.774 355.633C362.212 355.164 362.431 354.402 362.431 353.348V342.203H366.544ZM373.235 353.477V359.266H369.122V342.203H375.931C377.235 342.203 378.388 342.445 379.388 342.93C380.396 343.406 381.173 344.09 381.72 344.98C382.274 345.863 382.552 346.867 382.552 347.992C382.552 349.656 381.954 350.988 380.759 351.988C379.571 352.98 377.938 353.477 375.86 353.477H373.235ZM373.235 350.301H375.931C376.728 350.301 377.333 350.102 377.747 349.703C378.169 349.305 378.38 348.742 378.38 348.016C378.38 347.219 378.165 346.582 377.735 346.105C377.306 345.629 376.72 345.387 375.978 345.379H373.235V350.301Z" fill="#1F1F9C"/>
<defs>
<linearGradient id="paint0_linear" x1="334.732" y1="177.697" x2="334.732" y2="419.767" gradientUnits="userSpaceOnUse">
<stop stop-color="#1F1F9C"/>
<stop offset="0.169792" stop-color="#1F79BE"/>
</linearGradient>
<linearGradient id="paint1_linear" x1="333.989" y1="191.063" x2="333.989" y2="407.887" gradientUnits="userSpaceOnUse">
<stop stop-color="#1F79BE"/>
<stop offset="0.227083" stop-color="#1F1F9C"/>
</linearGradient>
</defs>
</svg>
